<svg width="334" height="511" viewBox="0 0 334 511" fill="none" xmlns="http://www.w3.org/2000/svg">
<g clip-path="url(#clip0_27_227)">
<path d="M41 42C52.598 42 62 32.598 62 21C62 9.40202 52.598 0 41 0C29.402 0 20 9.40202 20 21C20 32.598 29.402 42 41 42Z" fill="#86C4ED"/>
<path d="M300 292C309.941 292 318 283.941 318 274C318 264.059 309.941 256 300 256C290.059 256 282 264.059 282 274C282 283.941 290.059 292 300 292Z" fill="#86C4ED"/>
<path d="M316.5 511C322.851 511 328 505.851 328 499.5C328 493.149 322.851 488 316.5 488C310.149 488 305 493.149 305 499.5C305 505.851 310.149 511 316.5 511Z" fill="#EDED86"/>
<path d="M226 174C232.075 174 237 169.075 237 163C237 156.925 232.075 152 226 152C219.925 152 215 156.925 215 163C215 169.075 219.925 174 226 174Z" fill="#EDED86"/>
<path d="M96 198L105.452 213.18L122.87 209.13L118.82 226.548L134 236L118.82 245.452L122.87 262.87L105.452 258.82L96 274L86.5477 258.82L69.1299 262.87L73.1802 245.452L58 236L73.1802 226.548L69.1299 209.13L86.5477 213.18L96 198Z" fill="#FFC0C0"/>
<path d="M16.5 379L20.6043 385.591L28.1673 383.833L26.4086 391.396L33 395.5L26.4086 399.604L28.1673 407.167L20.6043 405.409L16.5 412L12.3957 405.409L4.83274 407.167L6.59139 399.604L0 395.5L6.59139 391.396L4.83274 383.833L12.3957 385.591L16.5 379Z" fill="#C0FFC8"/>
<path d="M303.5 11L311.087 23.1841L325.067 19.9332L321.816 33.9133L334 41.5L321.816 49.0867L325.067 63.0668L311.087 59.8159L303.5 72L295.913 59.8159L281.933 63.0668L285.184 49.0867L273 41.5L285.184 33.9133L281.933 19.9332L295.913 23.1841L303.5 11Z" fill="#C0FFC8"/>
</g>
<defs>
<clipPath id="clip0_27_227">
<rect width="334" height="511" fill="white"/>
</clipPath>
</defs>
</svg>
